<svg id="Layer_1" data-name="Layer 1" xmlns="http://www.w3.org/2000/svg" viewBox="0 0 908 508"><defs><style>.cls-1{fill:#e6e6e6;stroke:#e6e6e6;stroke-linejoin:round;stroke-width:8px;}</style></defs><polygon class="cls-1" points="204 504 454 4 704 504 654 504 454 104 254 504 204 504"/><polygon class="cls-1" points="654 4 579 154 604 204 654 104 854 504 904 504 654 4"/><polygon class="cls-1" points="404 304 428.45 255.09 478.45 255.09 504 304 404 304"/><polygon class="cls-1" points="154 504 179 454 79 454 279 54 254 4 4 504 154 504"/><polygon class="cls-1" points="154 404 254 204 278.45 255.09 204 404 154 404"/><polygon class="cls-1" points="304 204 278.45 155.09 304 104 329 154 304 204"/></svg>