<svg id="Layer_1" data-name="Layer 1" xmlns="http://www.w3.org/2000/svg" viewBox="0 0 480.02 508"><defs><style>.cls-1{fill:#e6e6e6;stroke:#e6e6e6;stroke-linejoin:round;stroke-width:8px;}</style></defs><path class="cls-1" d="M694.44,500a195.09,195.09,0,0,0-4.33-41,9.19,9.19,0,0,1,3.25-9.09l39.2-31.46a9.21,9.21,0,0,0,2.21-11.8l-36.53-63.28a9.23,9.23,0,0,0-11.33-4L640,357.61a9.22,9.22,0,0,1-9.51-1.73,194.22,194.22,0,0,0-71-41,9.18,9.18,0,0,1-6.25-7.36l-7.64-49.66a9.23,9.23,0,0,0-9.12-7.82H463.47a9.23,9.23,0,0,0-9.12,7.82l-7.64,49.66a9.18,9.18,0,0,1-6.25,7.36,194.22,194.22,0,0,0-71,41,9.22,9.22,0,0,1-9.51,1.73l-46.88-18.23a9.23,9.23,0,0,0-11.33,4l-36.53,63.28a9.21,9.21,0,0,0,2.21,11.8l39.2,31.46a9.19,9.19,0,0,1,3.25,9.09,196.37,196.37,0,0,0,0,82,9.19,9.19,0,0,1-3.25,9.09l-39.2,31.46a9.21,9.21,0,0,0-2.21,11.8l36.53,63.28a9.23,9.23,0,0,0,11.33,4L360,642.39a9.22,9.22,0,0,1,9.51,1.73,194.22,194.22,0,0,0,71,41,9.18,9.18,0,0,1,6.25,7.36l7.64,49.66a9.23,9.23,0,0,0,9.12,7.82h73.06a9.23,9.23,0,0,0,9.12-7.82l7.64-49.66a9.18,9.18,0,0,1,6.25-7.36,194.22,194.22,0,0,0,71-41,9.22,9.22,0,0,1,9.51-1.73l46.88,18.23a9.23,9.23,0,0,0,11.33-4l36.53-63.28a9.21,9.21,0,0,0-2.21-11.8l-39.2-31.46a9.19,9.19,0,0,1-3.25-9.09A195.09,195.09,0,0,0,694.44,500ZM500,583.33A83.33,83.33,0,1,1,583.33,500,83.33,83.33,0,0,1,500,583.33Z" transform="translate(-259.99 -246)"/></svg>